# xmcd
#
# Track frame offsets:
# 150
# 17845
# 33585
# 50738
# 66592
# 83753
# 98877
# 118831
# 135733
# 150696
# 167987
# 182955
# 200942
# 220804
#
# Disc length: 3136 seconds
#
#
# Revision: 3
# Processed by: cddbd v1.5.1PL2 Copyright (c) Steve Scherf et al.
# Submitted via: FreeRIP 2.944 
#
DISCID=d90c3e0e
DTITLE=Ivete Sangalo - Clube Carnavalesco Inocentes Em Progresso
DYEAR=2003
DGENRE=Samba
TTITLE0=Brasileiro
TTITLE1=Ritmo Gostoso
TTITLE2=Sorte Grande
TTITLE3=Verdadeiro Carnaval
TTITLE4=Só Pra Me Ver
TTITLE5=Pan-Americana
TTITLE6=Faz Tempo
TTITLE7=Retratos e Canções
TTITLE8=Devagar e Sempre
TTITLE9=Vai Dar Certo
TTITLE10=Azul da Moda
TTITLE11=Você e Eu, Eu e Você[Juntinhos]
TTITLE12=Natural Collie
TTITLE13=Somente Eu e Você[Moonglow]
EXTD=
EXTT0=
EXTT1=
EXTT2=
EXTT3=
EXTT4=
EXTT5=
EXTT6=
EXTT7=
EXTT8=
EXTT9=
EXTT10=
EXTT11=
EXTT12=
EXTT13=
PLAYORDER=
